<?xml version="1.0" encoding="UTF-8"?>
<svg width="700pt" height="700pt" version="1.1" viewBox="0 0 700 700" xmlns="http://www.w3.org/2000/svg" xmlns:xlink="http://www.w3.org/1999/xlink">
 <defs>
  <symbol id="y" overflow="visible">
   <path d="m4.1719-0.25c-0.21875 0.11719-0.44922 0.19922-0.6875 0.25-0.23047 0.0625-0.46875 0.09375-0.71875 0.09375-0.75 0-1.3516-0.20703-1.7969-0.625-0.4375-0.42578-0.65625-1.0039-0.65625-1.7344 0-0.71875 0.21875-1.2852 0.65625-1.7031 0.44531-0.42578 1.0469-0.64062 1.7969-0.64062 0.25 0 0.48828 0.027344 0.71875 0.078125 0.23828 0.054688 0.46875 0.13672 0.6875 0.25v0.9375c-0.21875-0.14453-0.4375-0.25-0.65625-0.3125-0.21094-0.070312-0.42969-0.10938-0.65625-0.10938-0.41797 0-0.74609 0.13672-0.98438 0.40625-0.24219 0.26172-0.35938 0.625-0.35938 1.0938s0.11719 0.83984 0.35938 1.1094c0.23828 0.26172 0.56641 0.39062 0.98438 0.39062 0.22656 0 0.44531-0.03125 0.65625-0.09375 0.21875-0.070313 0.4375-0.17969 0.65625-0.32812z"/>
  </symbol>
  <symbol id="c" overflow="visible">
   <path d="m3.0469-2.4688c-0.09375-0.050781-0.1875-0.085938-0.28125-0.10938-0.09375-0.019531-0.1875-0.03125-0.28125-0.03125-0.28125 0-0.5 0.09375-0.65625 0.28125-0.14844 0.17969-0.21875 0.43359-0.21875 0.76562v1.5625h-1.0938v-3.4062h1.0938v0.5625c0.13281-0.21875 0.28906-0.37891 0.46875-0.48438 0.1875-0.10156 0.40625-0.15625 0.65625-0.15625 0.039063 0 0.082031 0.007813 0.125 0.015625 0.039063 0 0.10156 0.007812 0.1875 0.015625z"/>
  </symbol>
  <symbol id="a" overflow="visible">
   <path d="m3.9219-1.7031v0.29688h-2.5469c0.03125 0.26172 0.125 0.45312 0.28125 0.57812s0.375 0.1875 0.65625 0.1875c0.22656 0 0.46094-0.03125 0.70312-0.09375 0.23828-0.070313 0.48438-0.17578 0.73438-0.3125v0.84375c-0.25 0.09375-0.50781 0.16797-0.76562 0.21875-0.26172 0.050781-0.51562 0.078125-0.76562 0.078125-0.61719 0-1.0938-0.15625-1.4375-0.46875s-0.51562-0.75391-0.51562-1.3281c0-0.55078 0.16406-0.98438 0.5-1.2969 0.33203-0.32031 0.79688-0.48438 1.3906-0.48438 0.53125 0 0.95703 0.16406 1.2812 0.48438 0.32031 0.32422 0.48438 0.75781 0.48438 1.2969zm-1.125-0.375c0-0.19531-0.0625-0.35938-0.1875-0.48438-0.11719-0.13281-0.27344-0.20312-0.46875-0.20312-0.21094 0-0.38281 0.0625-0.51562 0.1875-0.125 0.11719-0.20312 0.28125-0.23438 0.5z"/>
  </symbol>
  <symbol id="k" overflow="visible">
   <path d="m2.0469-1.5312c-0.23047 0-0.40234 0.042969-0.51562 0.125-0.11719 0.074219-0.17188 0.18359-0.17188 0.32812 0 0.13672 0.046875 0.24609 0.14062 0.32812 0.09375 0.074219 0.22266 0.10938 0.39062 0.10938 0.19531 0 0.36328-0.070313 0.5-0.21875 0.14453-0.14453 0.21875-0.32812 0.21875-0.54688v-0.125zm1.6562-0.40625v1.9375h-1.0938v-0.5c-0.14844 0.21094-0.3125 0.35938-0.5 0.45312-0.17969 0.09375-0.39844 0.14062-0.65625 0.14062-0.35547 0-0.64062-0.10156-0.85938-0.3125-0.21875-0.20703-0.32812-0.47266-0.32812-0.79688 0-0.40625 0.13281-0.69531 0.40625-0.875 0.28125-0.1875 0.71094-0.28125 1.2969-0.28125h0.64062v-0.09375c0-0.16406-0.070313-0.28906-0.20312-0.375-0.13672-0.082031-0.35156-0.125-0.64062-0.125-0.23047 0-0.44531 0.027344-0.64062 0.078125-0.19922 0.042969-0.38672 0.10938-0.5625 0.20312v-0.82812c0.22656-0.050781 0.46094-0.09375 0.70312-0.125 0.23828-0.03125 0.47266-0.046875 0.70312-0.046875 0.61328 0 1.0547 0.125 1.3281 0.375 0.26953 0.24219 0.40625 0.63281 0.40625 1.1719z"/>
  </symbol>
  <symbol id="b" overflow="visible">
   <path d="m1.7031-4.3594v0.95312h1.125v0.78125h-1.125v1.4375c0 0.16797 0.03125 0.27734 0.09375 0.32812 0.0625 0.054687 0.1875 0.078125 0.375 0.078125h0.5625v0.78125h-0.9375c-0.42969 0-0.73047-0.085938-0.90625-0.26562-0.17969-0.17578-0.26562-0.48438-0.26562-0.92188v-1.4375h-0.54688v-0.78125h0.54688v-0.95312z"/>
  </symbol>
  <symbol id="j" overflow="visible">
   <path d="m2.8438-2.9062v-1.8125h1.0781v4.7188h-1.0781v-0.48438c-0.15625 0.19922-0.32422 0.34375-0.5 0.4375-0.17969 0.09375-0.38672 0.14062-0.625 0.14062-0.41797 0-0.76172-0.16406-1.0312-0.5-0.27344-0.33203-0.40625-0.76562-0.40625-1.2969 0-0.51953 0.13281-0.94531 0.40625-1.2812 0.26953-0.33203 0.61328-0.5 1.0312-0.5 0.22656 0 0.42969 0.046875 0.60938 0.14062 0.1875 0.09375 0.35938 0.24219 0.51562 0.4375zm-0.71875 2.2031c0.22656 0 0.40625-0.082031 0.53125-0.25 0.125-0.17578 0.1875-0.42578 0.1875-0.75 0-0.32031-0.0625-0.56641-0.1875-0.73438-0.125-0.16406-0.30469-0.25-0.53125-0.25-0.24219 0-0.42188 0.085938-0.54688 0.25-0.11719 0.16797-0.17188 0.41406-0.17188 0.73438 0 0.32422 0.054688 0.57422 0.17188 0.75 0.125 0.16797 0.30469 0.25 0.54688 0.25z"/>
  </symbol>
  <symbol id="i" overflow="visible">
   <path d="m2.3281-0.70312c0.23828 0 0.41406-0.082031 0.53125-0.25 0.125-0.17578 0.1875-0.42578 0.1875-0.75 0-0.32031-0.0625-0.56641-0.1875-0.73438-0.11719-0.16406-0.29297-0.25-0.53125-0.25-0.23047 0-0.40625 0.085938-0.53125 0.25-0.125 0.16797-0.1875 0.41406-0.1875 0.73438 0 0.32422 0.0625 0.57422 0.1875 0.75 0.125 0.16797 0.30078 0.25 0.53125 0.25zm-0.71875-2.2031c0.14453-0.19531 0.30469-0.34375 0.48438-0.4375 0.1875-0.09375 0.39844-0.14062 0.64062-0.14062 0.41406 0 0.75781 0.16797 1.0312 0.5 0.26953 0.33594 0.40625 0.76172 0.40625 1.2812 0 0.53125-0.13672 0.96484-0.40625 1.2969-0.27344 0.33594-0.61719 0.5-1.0312 0.5-0.24219 0-0.45312-0.046875-0.64062-0.14062-0.17969-0.09375-0.33984-0.23828-0.48438-0.4375v0.48438h-1.0938v-4.7188h1.0938z"/>
  </symbol>
  <symbol id="h" overflow="visible">
   <path d="m0.078125-3.4062h1.0781l0.92188 2.3125 0.78125-2.3125h1.0781l-1.4219 3.7344c-0.14844 0.375-0.32031 0.63281-0.51562 0.78125-0.1875 0.15625-0.4375 0.23438-0.75 0.23438h-0.625v-0.71875h0.34375c0.17578 0 0.30469-0.03125 0.39062-0.09375 0.082031-0.054688 0.14844-0.15625 0.20312-0.3125l0.03125-0.09375z"/>
  </symbol>
  <symbol id="g" overflow="visible">
   <path d="m3.7188-4.3906v0.95312c-0.24219-0.10156-0.48047-0.17969-0.71875-0.23438-0.24219-0.0625-0.46484-0.09375-0.67188-0.09375-0.28125 0-0.49219 0.042969-0.625 0.125-0.13672 0.074219-0.20312 0.1875-0.20312 0.34375 0 0.125 0.046875 0.22656 0.14062 0.29688 0.09375 0.0625 0.25391 0.11719 0.48438 0.15625l0.5 0.10938c0.50781 0.10547 0.86719 0.26172 1.0781 0.46875 0.20703 0.19922 0.3125 0.49219 0.3125 0.875 0 0.5-0.14844 0.875-0.4375 1.125-0.29297 0.24219-0.74609 0.35938-1.3594 0.35938-0.29297 0-0.58594-0.03125-0.875-0.09375-0.28125-0.050781-0.57031-0.12891-0.85938-0.23438v-0.98438c0.28906 0.14844 0.57031 0.26172 0.84375 0.34375 0.26953 0.074219 0.53125 0.10938 0.78125 0.10938s0.44141-0.039063 0.57812-0.125c0.13281-0.082031 0.20312-0.20312 0.20312-0.35938 0-0.14453-0.046875-0.25391-0.14062-0.32812-0.085938-0.070313-0.26562-0.14062-0.54688-0.20312l-0.45312-0.10938c-0.44922-0.09375-0.77734-0.24219-0.98438-0.45312-0.21094-0.21875-0.3125-0.50391-0.3125-0.85938 0-0.45703 0.14453-0.80469 0.4375-1.0469 0.28906-0.23828 0.70703-0.35938 1.25-0.35938 0.25 0 0.50391 0.023437 0.76562 0.0625 0.25781 0.03125 0.53125 0.085937 0.8125 0.15625z"/>
  </symbol>
  <symbol id="x" overflow="visible">
   <path d="m3.3281-0.82812h-1.8281l-0.29688 0.82812h-1.1719l1.6719-4.5312h1.4062l1.6719 4.5312h-1.1719zm-1.5469-0.84375h1.25l-0.625-1.7969z"/>
  </symbol>
  <symbol id="w" overflow="visible">
   <path d="m0.57812-4.5312h1.4844l1.0312 2.4219 1.0312-2.4219h1.4844v4.5312h-1.0938v-3.3125l-1.0469 2.4375h-0.75l-1.0469-2.4375v3.3125h-1.0938z"/>
  </symbol>
  <symbol id="v" overflow="visible">
   <path d="m1.7344-3.6562v2.7656h0.42188c0.47656 0 0.84375-0.11328 1.0938-0.34375 0.25-0.23828 0.375-0.58203 0.375-1.0312 0-0.45703-0.125-0.80078-0.375-1.0312-0.25-0.23828-0.61719-0.35938-1.0938-0.35938zm-1.1562-0.875h1.2188c0.69531 0 1.2109 0.054688 1.5469 0.15625 0.33203 0.09375 0.61719 0.25781 0.85938 0.48438 0.21875 0.21094 0.37891 0.44922 0.48438 0.71875 0.10156 0.26172 0.15625 0.5625 0.15625 0.90625 0 0.33594-0.054688 0.63672-0.15625 0.90625-0.10547 0.27344-0.26562 0.51172-0.48438 0.71875-0.24219 0.23047-0.53125 0.39844-0.875 0.5-0.33594 0.09375-0.84375 0.14062-1.5312 0.14062h-1.2188z"/>
  </symbol>
  <symbol id="f" overflow="visible">
   <path d="m3.1719-3.2969v0.82812c-0.23047-0.09375-0.45312-0.16406-0.67188-0.21875-0.21094-0.050781-0.41406-0.078125-0.60938-0.078125-0.21094 0-0.36719 0.027344-0.46875 0.078125-0.09375 0.054688-0.14062 0.13672-0.14062 0.25 0 0.085938 0.035156 0.15234 0.10938 0.20312 0.082031 0.042969 0.21875 0.074219 0.40625 0.09375l0.20312 0.03125c0.55078 0.074219 0.92188 0.19531 1.1094 0.35938 0.19531 0.15625 0.29688 0.40625 0.29688 0.75 0 0.36719-0.13672 0.64062-0.40625 0.82812-0.26172 0.17578-0.65625 0.26562-1.1875 0.26562-0.23047 0-0.46484-0.023438-0.70312-0.0625-0.24219-0.03125-0.48438-0.082031-0.73438-0.15625v-0.82812c0.21875 0.10547 0.4375 0.18359 0.65625 0.23438 0.22656 0.054688 0.46094 0.078125 0.70312 0.078125 0.20703 0 0.36328-0.023437 0.46875-0.078125 0.11328-0.0625 0.17188-0.14844 0.17188-0.26562 0-0.09375-0.039062-0.16016-0.10938-0.20312-0.074219-0.050781-0.21875-0.09375-0.4375-0.125l-0.20312-0.03125c-0.48047-0.050781-0.82031-0.16016-1.0156-0.32812-0.1875-0.16406-0.28125-0.41406-0.28125-0.75 0-0.35156 0.11719-0.61719 0.35938-0.79688 0.25-0.17578 0.62891-0.26562 1.1406-0.26562 0.19531 0 0.40625 0.015625 0.625 0.046875 0.22656 0.03125 0.46875 0.078125 0.71875 0.14062z"/>
  </symbol>
  <symbol id="u" overflow="visible">
   <path d="m0.51562-3.4062h1.0938v3.4062h-1.0938zm0-1.3125h1.0938v0.875h-1.0938z"/>
  </symbol>
  <symbol id="t" overflow="visible">
   <path d="m2.8438-0.57812c-0.15625 0.19922-0.32422 0.34375-0.5 0.4375-0.17969 0.09375-0.38672 0.14062-0.625 0.14062-0.41797 0-0.76172-0.16016-1.0312-0.48438-0.27344-0.33203-0.40625-0.75-0.40625-1.25 0-0.50781 0.13281-0.92578 0.40625-1.25 0.26953-0.33203 0.61328-0.5 1.0312-0.5 0.23828 0 0.44531 0.046875 0.625 0.14062 0.17578 0.09375 0.34375 0.24609 0.5 0.45312v-0.51562h1.0781v3.0625c0 0.55078-0.17188 0.96875-0.51562 1.25-0.34375 0.28906-0.84375 0.4375-1.5 0.4375-0.21094 0-0.41406-0.015625-0.60938-0.046875-0.19922-0.03125-0.39844-0.085937-0.59375-0.15625v-0.84375c0.1875 0.11328 0.36719 0.19531 0.54688 0.25 0.1875 0.050781 0.36719 0.078125 0.54688 0.078125 0.36328 0 0.62891-0.078125 0.79688-0.23438 0.16406-0.15625 0.25-0.39844 0.25-0.73438zm-0.71875-2.1094c-0.23047 0-0.40625 0.085938-0.53125 0.25-0.125 0.15625-0.1875 0.39062-0.1875 0.70312s0.054688 0.54688 0.17188 0.70312c0.125 0.15625 0.30469 0.23438 0.54688 0.23438 0.21875 0 0.39062-0.078125 0.51562-0.23438 0.13281-0.16406 0.20312-0.39844 0.20312-0.70312 0-0.3125-0.070312-0.54688-0.20312-0.70312-0.125-0.16406-0.29688-0.25-0.51562-0.25z"/>
  </symbol>
  <symbol id="e" overflow="visible">
   <path d="m3.9375-2.0781v2.0781h-1.0938v-1.5781c0-0.30078-0.007812-0.50391-0.015625-0.60938-0.011719-0.11328-0.03125-0.19531-0.0625-0.25-0.042969-0.070312-0.10156-0.125-0.17188-0.15625-0.074219-0.039062-0.15625-0.0625-0.25-0.0625-0.23047 0-0.41406 0.089844-0.54688 0.26562-0.125 0.16797-0.1875 0.40625-0.1875 0.71875v1.6719h-1.0938v-3.4062h1.0938v0.5c0.16406-0.19531 0.33594-0.34375 0.51562-0.4375 0.1875-0.09375 0.39062-0.14062 0.60938-0.14062 0.39453 0 0.69141 0.12109 0.89062 0.35938 0.20703 0.24219 0.3125 0.58984 0.3125 1.0469z"/>
  </symbol>
  <symbol id="s" overflow="visible">
   <path d="m2.7656-4.7188v0.70312h-0.60938c-0.15625 0-0.26562 0.03125-0.32812 0.09375-0.054687 0.054687-0.078125 0.14844-0.078125 0.28125v0.23438h0.92188v0.78125h-0.92188v2.625h-1.0938v-2.625h-0.53125v-0.78125h0.53125v-0.23438c0-0.36328 0.10156-0.63281 0.3125-0.8125 0.20703-0.17578 0.52344-0.26562 0.95312-0.26562z"/>
  </symbol>
  <symbol id="d" overflow="visible">
   <path d="m2.1406-2.7031c-0.24219 0-0.42188 0.089844-0.54688 0.26562-0.125 0.16797-0.1875 0.41406-0.1875 0.73438 0 0.33594 0.0625 0.58984 0.1875 0.76562 0.125 0.16797 0.30469 0.25 0.54688 0.25 0.23828 0 0.42188-0.082031 0.54688-0.25 0.125-0.17578 0.1875-0.42969 0.1875-0.76562 0-0.32031-0.0625-0.56641-0.1875-0.73438-0.125-0.17578-0.30859-0.26562-0.54688-0.26562zm0-0.78125c0.58203 0 1.0352 0.16406 1.3594 0.48438 0.33203 0.3125 0.5 0.74609 0.5 1.2969 0 0.5625-0.16797 1.0078-0.5 1.3281-0.32422 0.3125-0.77734 0.46875-1.3594 0.46875-0.58594 0-1.043-0.15625-1.375-0.46875-0.33594-0.32031-0.5-0.76562-0.5-1.3281 0-0.55078 0.16406-0.98438 0.5-1.2969 0.33203-0.32031 0.78906-0.48438 1.375-0.48438z"/>
  </symbol>
  <symbol id="r" overflow="visible">
   <path d="m3.6719-2.8438c0.13281-0.20703 0.29688-0.36328 0.48438-0.46875 0.19531-0.11328 0.40625-0.17188 0.625-0.17188 0.39453 0 0.69141 0.12109 0.89062 0.35938 0.20703 0.24219 0.3125 0.58984 0.3125 1.0469v2.0781h-1.0938v-1.7656-0.078125c0.007813-0.03125 0.015625-0.078125 0.015625-0.14062 0-0.23828-0.039062-0.41016-0.10938-0.51562-0.074219-0.10156-0.1875-0.15625-0.34375-0.15625-0.21094 0-0.37109 0.085938-0.48438 0.25-0.10547 0.16797-0.16406 0.41406-0.17188 0.73438v1.6719h-1.0938v-1.7656c0-0.38281-0.03125-0.62891-0.09375-0.73438-0.0625-0.10156-0.17969-0.15625-0.34375-0.15625-0.21094 0-0.37109 0.085938-0.48438 0.25-0.11719 0.16797-0.17188 0.41406-0.17188 0.73438v1.6719h-1.0938v-3.4062h1.0938v0.5c0.13281-0.1875 0.28516-0.32812 0.45312-0.42188 0.17578-0.10156 0.36719-0.15625 0.57812-0.15625 0.23828 0 0.44531 0.058594 0.625 0.17188 0.17578 0.11719 0.3125 0.27344 0.40625 0.46875z"/>
  </symbol>
  <symbol id="q" overflow="visible">
   <path d="m3.9375-2.0781v2.0781h-1.0938v-1.5781c0-0.30078-0.007812-0.50391-0.015625-0.60938-0.011719-0.11328-0.03125-0.19531-0.0625-0.25-0.042969-0.070312-0.10156-0.125-0.17188-0.15625-0.074219-0.039062-0.15625-0.0625-0.25-0.0625-0.23047 0-0.41406 0.089844-0.54688 0.26562-0.125 0.16797-0.1875 0.40625-0.1875 0.71875v1.6719h-1.0938v-4.7188h1.0938v1.8125c0.16406-0.19531 0.33594-0.34375 0.51562-0.4375 0.1875-0.09375 0.39062-0.14062 0.60938-0.14062 0.39453 0 0.69141 0.12109 0.89062 0.35938 0.20703 0.24219 0.3125 0.58984 0.3125 1.0469z"/>
  </symbol>
  <symbol id="p" overflow="visible">
   <path d="m0.57812-4.5312h1.2969l1.6562 3.1094v-3.1094h1.1094v4.5312h-1.3125l-1.6562-3.1094v3.1094h-1.0938z"/>
  </symbol>
  <symbol id="o" overflow="visible">
   <path d="m0.48438-1.3281v-2.0781h1.0938v0.34375 0.70312 0.54688c0 0.27344 0.003906 0.46875 0.015625 0.59375 0.007812 0.125 0.035156 0.21484 0.078125 0.26562 0.039063 0.074219 0.097656 0.13281 0.17188 0.17188 0.070312 0.03125 0.15625 0.046875 0.25 0.046875 0.21875 0 0.39062-0.082031 0.51562-0.25 0.13281-0.17578 0.20312-0.42188 0.20312-0.73438v-1.6875h1.0938v3.4062h-1.0938v-0.48438c-0.15625 0.19922-0.32812 0.34375-0.51562 0.4375s-0.39062 0.14062-0.60938 0.14062c-0.38672 0-0.68359-0.11719-0.89062-0.35938-0.21094-0.25-0.3125-0.60156-0.3125-1.0625z"/>
  </symbol>
  <symbol id="n" overflow="visible">
   <path d="m0.57812-4.5312h1.9375c0.57031 0 1.0078 0.13281 1.3125 0.39062 0.3125 0.25 0.46875 0.60938 0.46875 1.0781 0 0.48047-0.15625 0.85156-0.46875 1.1094-0.30469 0.25-0.74219 0.375-1.3125 0.375h-0.78125v1.5781h-1.1562zm1.1562 0.84375v1.2656h0.65625c0.22656 0 0.39844-0.050781 0.51562-0.15625 0.125-0.11328 0.1875-0.27344 0.1875-0.48438 0-0.19531-0.0625-0.34766-0.1875-0.45312-0.11719-0.11328-0.28906-0.17188-0.51562-0.17188z"/>
  </symbol>
  <symbol id="m" overflow="visible">
   <path d="m0.51562-3.4062h1.0938v3.3438c0 0.45703-0.10938 0.80469-0.32812 1.0469-0.21875 0.23828-0.53906 0.35938-0.95312 0.35938h-0.53125v-0.71875h0.1875c0.20703 0 0.34766-0.046875 0.42188-0.14062 0.070312-0.09375 0.10938-0.27734 0.10938-0.54688zm0-1.3125h1.0938v0.875h-1.0938z"/>
  </symbol>
  <symbol id="l" overflow="visible">
   <path d="m3.2656-3.2969v0.89062c-0.14844-0.10156-0.29297-0.17578-0.4375-0.21875-0.14844-0.050781-0.30469-0.078125-0.46875-0.078125-0.30469 0-0.53906 0.089844-0.70312 0.26562-0.16797 0.17969-0.25 0.42188-0.25 0.73438 0 0.32422 0.082031 0.57422 0.25 0.75 0.16406 0.17969 0.39844 0.26562 0.70312 0.26562 0.17578 0 0.33594-0.023438 0.48438-0.078125 0.15625-0.050781 0.29688-0.125 0.42188-0.21875v0.89062c-0.16797 0.0625-0.33984 0.10938-0.51562 0.14062-0.17969 0.03125-0.35547 0.046875-0.53125 0.046875-0.60547 0-1.0859-0.15625-1.4375-0.46875-0.34375-0.32031-0.51562-0.76562-0.51562-1.3281 0-0.55078 0.17188-0.98438 0.51562-1.2969 0.35156-0.32031 0.83203-0.48438 1.4375-0.48438 0.1875 0 0.36328 0.015625 0.53125 0.046875 0.17578 0.03125 0.34766 0.078125 0.51562 0.14062z"/>
  </symbol>
 </defs>
 <g>
  <path d="m171.72 492.41c-0.10938 0-0.21875-0.003906-0.32812-0.007812-3.4336-0.17969-6.0664-3.1055-5.8906-6.5391 3.207-61.449-42.113-93.055-42.57-93.367-0.16016-0.10938-0.31641-0.22656-0.46484-0.34766-39.172-32.406-36.98-73.422-36.605-77.973l0.003907-152.7c0-18.023 14.66-32.684 32.684-32.684 18.023 0 32.684 14.66 32.684 32.684v125.11c0 3.4375-2.7852 6.2227-6.2227 6.2227s-6.2227-2.7852-6.2227-6.2227v-125.11c0-11.16-9.0781-20.238-20.238-20.238-11.16 0-20.238 9.0781-20.238 20.238l-0.003906 152.98c0 0.21094-0.011719 0.42578-0.03125 0.63281-0.14844 1.5273-3.2148 38.09 31.922 67.305 4.4102 3.0898 51.207 37.551 47.73 104.12-0.17188 3.3281-2.918 5.9023-6.207 5.9023z"/>
  <path d="m292.21 492.41c-0.3125 0-0.63281-0.023437-0.95312-0.074218-3.3945-0.52344-5.7266-3.6992-5.207-7.0938 12.191-79.387-26.125-114.29-74.641-158.48-10.641-9.6914-21.641-19.715-32.613-30.684-9.9375-9.9414-26.113-9.9414-36.059 0-9.9414 9.9414-9.9414 26.117 0 36.059l61.832 61.832c2.4297 2.4297 2.4297 6.3672 0 8.7969-2.4297 2.4297-6.3672 2.4297-8.8008 0l-61.832-61.832c-14.793-14.793-14.793-38.863 0-53.652 14.797-14.793 38.867-14.793 53.656 0 10.766 10.766 21.66 20.688 32.195 30.285 49.238 44.852 91.766 83.59 78.559 169.57-0.46484 3.0742-3.1172 5.2734-6.1367 5.2734z"/>
  <path d="m322.75 555.94h-179.8c-3.4375 0-6.2227-2.7852-6.2227-6.2227v-63.527c0-3.4375 2.7852-6.2227 6.2227-6.2227h179.8c3.4375 0 6.2227 2.7852 6.2227 6.2227v63.527c0 3.4375-2.7852 6.2227-6.2227 6.2227zm-173.57-12.441h167.35v-51.086h-167.35z"/>
  <path d="m528.92 492.41c-3.2891 0-6.0352-2.5742-6.207-5.8984-3.4766-66.566 43.324-101.03 47.73-104.12 35.363-29.406 31.961-66.926 31.922-67.305-0.023438-0.21094-0.03125-0.42188-0.03125-0.63281v-152.98c0-11.16-9.0781-20.238-20.238-20.238s-20.242 9.0781-20.242 20.238v125.11c0 3.4375-2.7852 6.2227-6.2227 6.2227s-6.2227-2.7852-6.2227-6.2227l0.003906-125.11c0-18.023 14.66-32.684 32.684-32.684 18.02 0 32.684 14.66 32.684 32.684v152.7c0.37891 4.5469 2.5703 45.562-36.602 77.973-0.14844 0.125-0.30469 0.23828-0.46484 0.34766-1.8594 1.2773-45.766 32.176-42.574 93.367 0.17969 3.4336-2.457 6.3594-5.8906 6.5391-0.10547 0.003906-0.21484 0.007812-0.32812 0.007812z"/>
  <path d="m408.43 492.41c-3.0195 0-5.6719-2.2031-6.1445-5.2773-13.203-85.98 29.32-124.72 78.559-169.57 10.535-9.5977 21.43-19.52 32.195-30.285 14.766-14.766 38.777-14.793 53.578-0.078125 0.027344 0.027343 0.054687 0.050781 0.082031 0.078125 14.793 14.793 14.789 38.863-0.003906 53.652l-61.832 61.832c-2.4297 2.4297-6.3711 2.4297-8.7969 0-2.4297-2.4297-2.4297-6.3672 0-8.7969l61.832-61.832c9.918-9.9219 9.9414-26.047 0.066406-35.992-0.023438-0.023437-0.042969-0.042969-0.066406-0.066406-9.9414-9.9414-26.117-9.9375-36.059 0-10.973 10.973-21.973 20.996-32.613 30.684-48.512 44.191-86.828 79.098-74.637 158.48 0.51953 3.3945-1.8086 6.5703-5.207 7.0938-0.32422 0.054687-0.64062 0.078124-0.95312 0.078124z"/>
  <path d="m557.69 555.94h-179.8c-3.4375 0-6.2227-2.7852-6.2227-6.2227v-63.527c0-3.4375 2.7852-6.2227 6.2227-6.2227h179.8c3.4375 0 6.2227 2.7852 6.2227 6.2227v63.527c0 3.4375-2.7891 6.2227-6.2227 6.2227zm-173.58-12.441h167.35v-51.086h-167.35z"/>
  <path d="m350.32 341.33c-1.4766 0-2.957-0.52344-4.1328-1.5703-56.363-50.098-114.64-101.9-114.64-154.72 0-31.016 28.039-56.246 62.5-56.246 28.25 0 43.457 11.895 56.277 31.668 12.816-19.773 28.027-31.668 56.277-31.668 34.461 0 62.5 25.23 62.5 56.246 0 52.816-58.281 104.62-114.64 154.72-1.1875 1.0469-2.6641 1.5703-4.1406 1.5703zm-56.277-200.09c-27.602 0-50.055 19.648-50.055 43.801 0 46.035 53.344 94.617 106.33 141.75 52.988-47.129 106.33-95.711 106.33-141.75 0-24.152-22.453-43.801-50.055-43.801-23.578 0-36.41 8.668-50.852 34.344-1.1016 1.9609-3.1758 3.1719-5.4219 3.1719s-4.3203-1.2109-5.4219-3.1719c-14.449-25.676-27.281-34.344-50.859-34.344z"/>
  <path d="m495.79 96.629c-1.0547 0-2.125-0.26953-3.1055-0.83594-2.9766-1.7188-3.9961-5.5234-2.2773-8.5l19.652-34.039c1.7148-2.9766 5.5234-3.9961 8.5-2.2773 2.9766 1.7188 3.9961 5.5234 2.2773 8.5l-19.652 34.039c-1.1523 1.9961-3.2422 3.1133-5.3945 3.1133z"/>
  <path d="m425.63 67.562c-0.53516 0-1.0742-0.070312-1.6133-0.21484-3.3203-0.89062-5.2891-4.3008-4.3984-7.6211l10.172-37.965c0.89063-3.3203 4.3008-5.293 7.6211-4.3984 3.3203 0.89062 5.2891 4.3008 4.3984 7.6211l-10.172 37.965c-0.74609 2.7812-3.2617 4.6133-6.0078 4.6133z"/>
  <path d="m350.32 57.648c-3.4375 0-6.2227-2.7852-6.2227-6.2227v-39.305c0-3.4375 2.7852-6.2227 6.2227-6.2227s6.2227 2.7852 6.2227 6.2227v39.305c0 3.4375-2.7891 6.2227-6.2227 6.2227z"/>
  <path d="m275.02 67.562c-2.7461 0-5.2617-1.832-6.0078-4.6133l-10.172-37.965c-0.89062-3.3203 1.082-6.7305 4.3984-7.6211 3.3203-0.89062 6.7305 1.082 7.6211 4.3984l10.172 37.965c0.89062 3.3203-1.082 6.7305-4.3984 7.6211-0.53906 0.14453-1.082 0.21484-1.6133 0.21484z"/>
  <path d="m204.86 96.629c-2.1523 0-4.2422-1.1172-5.3945-3.1133l-19.652-34.039c-1.7188-2.9766-0.69922-6.7812 2.2773-8.5 2.9805-1.7188 6.7812-0.69922 8.5 2.2773l19.652 34.039c1.7188 2.9766 0.69922 6.7812-2.2773 8.5-0.98438 0.56641-2.0508 0.83594-3.1055 0.83594z"/>
  <path d="m322.75 524.18h-179.8c-3.4375 0-6.2227-2.7852-6.2227-6.2227s2.7852-6.2227 6.2227-6.2227h179.8c3.4375 0 6.2227 2.7852 6.2227 6.2227s-2.7852 6.2227-6.2227 6.2227z"/>
  <path d="m557.69 524.18h-179.8c-3.4375 0-6.2227-2.7852-6.2227-6.2227s2.7852-6.2227 6.2227-6.2227h179.8c3.4375 0 6.2227 2.7852 6.2227 6.2227s-2.7891 6.2227-6.2227 6.2227z"/>
  <path d="m266.1 460.16c-3.4375 0-6.2227-2.7852-6.2227-6.2227 0-29.586-29.988-65.965-30.293-66.328-2.1992-2.6406-1.8398-6.5625 0.80078-8.7617 2.6406-2.1992 6.5625-1.8438 8.7617 0.79688 1.3555 1.625 33.176 40.188 33.176 74.297 0 3.4336-2.7891 6.2188-6.2227 6.2188z"/>
  <path d="m435.34 460.16c-3.4375 0-6.2227-2.7852-6.2227-6.2227 0-34.109 31.82-72.672 33.176-74.297 2.2031-2.6367 6.1211-2.9961 8.7656-0.79688 2.6367 2.2031 2.9922 6.1211 0.79688 8.7617-0.30078 0.36328-30.293 36.742-30.293 66.328 0 3.4414-2.7852 6.2266-6.2227 6.2266z"/>
  <use x="70" y="578.667969" xlink:href="#y"/>
  <use x="74.566406" y="578.667969" xlink:href="#c"/>
  <use x="77.636719" y="578.667969" xlink:href="#a"/>
  <use x="81.855469" y="578.667969" xlink:href="#k"/>
  <use x="86.054688" y="578.667969" xlink:href="#b"/>
  <use x="89.027344" y="578.667969" xlink:href="#a"/>
  <use x="93.25" y="578.667969" xlink:href="#j"/>
  <use x="99.867188" y="578.667969" xlink:href="#i"/>
  <use x="104.324219" y="578.667969" xlink:href="#h"/>
  <use x="110.542969" y="578.667969" xlink:href="#g"/>
  <use x="115.027344" y="578.667969" xlink:href="#x"/>
  <use x="119.839844" y="578.667969" xlink:href="#w"/>
  <use x="128.199219" y="578.667969" xlink:href="#v"/>
  <use x="133.363281" y="578.667969" xlink:href="#a"/>
  <use x="137.585938" y="578.667969" xlink:href="#f"/>
  <use x="141.289062" y="578.667969" xlink:href="#u"/>
  <use x="143.421875" y="578.667969" xlink:href="#t"/>
  <use x="147.875" y="578.667969" xlink:href="#e"/>
  <use x="152.304688" y="578.667969" xlink:href="#f"/>
  <use x="70" y="584.890625" xlink:href="#s"/>
  <use x="72.707031" y="584.890625" xlink:href="#c"/>
  <use x="75.777344" y="584.890625" xlink:href="#d"/>
  <use x="80.050781" y="584.890625" xlink:href="#r"/>
  <use x="88.699219" y="584.890625" xlink:href="#b"/>
  <use x="91.675781" y="584.890625" xlink:href="#q"/>
  <use x="96.105469" y="584.890625" xlink:href="#a"/>
  <use x="102.492188" y="584.890625" xlink:href="#p"/>
  <use x="107.699219" y="584.890625" xlink:href="#d"/>
  <use x="111.972656" y="584.890625" xlink:href="#o"/>
  <use x="116.402344" y="584.890625" xlink:href="#e"/>
  <use x="123" y="584.890625" xlink:href="#n"/>
  <use x="127.558594" y="584.890625" xlink:href="#c"/>
  <use x="130.628906" y="584.890625" xlink:href="#d"/>
  <use x="134.902344" y="584.890625" xlink:href="#m"/>
  <use x="137.035156" y="584.890625" xlink:href="#a"/>
  <use x="141.253906" y="584.890625" xlink:href="#l"/>
  <use x="144.941406" y="584.890625" xlink:href="#b"/>
 </g>
</svg>
