<?xml version="1.0" encoding="UTF-8"?>
<svg width="700pt" height="700pt" version="1.1" viewBox="0 0 700 700" xmlns="http://www.w3.org/2000/svg" xmlns:xlink="http://www.w3.org/1999/xlink">
 <defs>
  <symbol id="i" overflow="visible">
   <path d="m29.312-1.75c-1.5117 0.78125-3.0898 1.3711-4.7344 1.7656-1.6367 0.40625-3.3398 0.60938-5.1094 0.60938-5.3125 0-9.5273-1.4844-12.641-4.4531-3.1055-2.9688-4.6562-7-4.6562-12.094s1.5508-9.125 4.6562-12.094c3.1133-2.9688 7.3281-4.4531 12.641-4.4531 1.7695 0 3.4727 0.19922 5.1094 0.59375 1.6445 0.39844 3.2227 0.99219 4.7344 1.7812v6.5938c-1.5312-1.0391-3.0391-1.8008-4.5156-2.2812-1.4805-0.48828-3.0391-0.73438-4.6719-0.73438-2.9375 0-5.2461 0.94531-6.9219 2.8281-1.6797 1.875-2.5156 4.4648-2.5156 7.7656 0 3.293 0.83594 5.8828 2.5156 7.7656 1.6758 1.875 3.9844 2.8125 6.9219 2.8125 1.6328 0 3.1914-0.23828 4.6719-0.71875 1.4766-0.48828 2.9844-1.2539 4.5156-2.2969z"/>
  </symbol>
  <symbol id="d" overflow="visible">
   <path d="m21.453-17.406c-0.67969-0.3125-1.3516-0.53906-2.0156-0.6875-0.65625-0.15625-1.3203-0.23438-1.9844-0.23438-1.9688 0-3.4844 0.63281-4.5469 1.8906-1.0547 1.2617-1.5781 3.0703-1.5781 5.4219v11.016h-7.6562v-23.922h7.6562v3.9219c0.97656-1.5625 2.1016-2.7031 3.375-3.4219 1.2812-0.71875 2.8125-1.0781 4.5938-1.0781 0.25 0 0.52344 0.011719 0.82812 0.03125 0.30078 0.023438 0.73438 0.070312 1.2969 0.14062z"/>
  </symbol>
  <symbol id="c" overflow="visible">
   <path d="m27.562-12.031v2.1875h-17.891c0.1875 1.793 0.83203 3.1367 1.9375 4.0312 1.1133 0.89844 2.6719 1.3438 4.6719 1.3438 1.6016 0 3.25-0.23438 4.9375-0.70312 1.6875-0.47656 3.4219-1.2031 5.2031-2.1719v5.8906c-1.8047 0.6875-3.6094 1.2031-5.4219 1.5469-1.8125 0.35156-3.6211 0.53125-5.4219 0.53125-4.3359 0-7.7031-1.0977-10.109-3.2969-2.3984-2.207-3.5938-5.2969-3.5938-9.2656 0-3.9062 1.1758-6.9727 3.5312-9.2031 2.3633-2.2383 5.6094-3.3594 9.7344-3.3594 3.7578 0 6.7695 1.1367 9.0312 3.4062 2.2578 2.2617 3.3906 5.2812 3.3906 9.0625zm-7.8594-2.5312c0-1.457-0.42969-2.6289-1.2812-3.5156-0.84375-0.89453-1.9492-1.3438-3.3125-1.3438-1.4922 0-2.6992 0.41797-3.625 1.25-0.91797 0.83594-1.4922 2.0391-1.7188 3.6094z"/>
  </symbol>
  <symbol id="a" overflow="visible">
   <path d="m14.391-10.766c-1.5938 0-2.793 0.27344-3.5938 0.8125-0.80469 0.54297-1.2031 1.3398-1.2031 2.3906 0 0.96875 0.32031 1.7305 0.96875 2.2812 0.64453 0.54297 1.5469 0.8125 2.7031 0.8125 1.4375 0 2.6445-0.51562 3.625-1.5469 0.98828-1.0312 1.4844-2.3203 1.4844-3.875v-0.875zm11.688-2.8906v13.656h-7.7031v-3.5469c-1.0312 1.4492-2.1875 2.5078-3.4688 3.1719s-2.8398 1-4.6719 1c-2.4805 0-4.4961-0.72266-6.0469-2.1719-1.543-1.4453-2.3125-3.3203-2.3125-5.625 0-2.8125 0.96094-4.8672 2.8906-6.1719 1.9375-1.3125 4.9688-1.9688 9.0938-1.9688h4.5156v-0.60938c0-1.207-0.48047-2.0938-1.4375-2.6562-0.94922-0.5625-2.4375-0.84375-4.4688-0.84375-1.6367 0-3.1562 0.16797-4.5625 0.5-1.4062 0.32422-2.7188 0.8125-3.9375 1.4688v-5.8281c1.6445-0.40625 3.2891-0.70703 4.9375-0.90625 1.6562-0.20703 3.3047-0.3125 4.9531-0.3125 4.3203 0 7.4375 0.85547 9.3438 2.5625 1.9141 1.6992 2.875 4.4609 2.875 8.2812z"/>
  </symbol>
  <symbol id="h" overflow="visible">
   <path d="m12.031-30.719v6.7969h7.875v5.4688h-7.875v10.141c0 1.1172 0.21875 1.8711 0.65625 2.2656 0.4375 0.38672 1.3125 0.57812 2.625 0.57812h3.9375v5.4688h-6.5625c-3.0234 0-5.1641-0.62891-6.4219-1.8906-1.2617-1.2578-1.8906-3.3984-1.8906-6.4219v-10.141h-3.7969v-5.4688h3.7969v-6.7969z"/>
  </symbol>
  <symbol id="b" overflow="visible">
   <path d="m19.953-20.422v-12.812h7.6875v33.234h-7.6875v-3.4531c-1.0547 1.4062-2.2148 2.4375-3.4844 3.0938-1.2734 0.65625-2.7422 0.98438-4.4062 0.98438-2.9492 0-5.3711-1.1719-7.2656-3.5156-1.8867-2.3438-2.8281-5.3594-2.8281-9.0469s0.94141-6.7031 2.8281-9.0469c1.8945-2.3438 4.3164-3.5156 7.2656-3.5156 1.6562 0 3.1172 0.33594 4.3906 1 1.2812 0.65625 2.4453 1.6836 3.5 3.0781zm-5.0469 15.484c1.6445 0 2.8945-0.59766 3.75-1.7969 0.86328-1.1953 1.2969-2.9297 1.2969-5.2031 0-2.2812-0.43359-4.0195-1.2969-5.2188-0.85547-1.1953-2.1055-1.7969-3.75-1.7969-1.625 0-2.8711 0.60156-3.7344 1.7969-0.85547 1.1992-1.2812 2.9375-1.2812 5.2188 0 2.2734 0.42578 4.0078 1.2812 5.2031 0.86328 1.1992 2.1094 1.7969 3.7344 1.7969z"/>
  </symbol>
  <symbol id="g" overflow="visible">
   <path d="m16.406-4.9375c1.6328 0 2.8828-0.59766 3.75-1.7969 0.86328-1.1953 1.2969-2.9297 1.2969-5.2031 0-2.2812-0.43359-4.0195-1.2969-5.2188-0.86719-1.1953-2.1172-1.7969-3.75-1.7969-1.6367 0-2.8906 0.60547-3.7656 1.8125-0.875 1.1992-1.3125 2.9336-1.3125 5.2031 0 2.2617 0.4375 3.9961 1.3125 5.2031 0.875 1.1992 2.1289 1.7969 3.7656 1.7969zm-5.0781-15.484c1.0508-1.3945 2.2188-2.4219 3.5-3.0781 1.2812-0.66406 2.7539-1 4.4219-1 2.9453 0 5.3672 1.1719 7.2656 3.5156 1.8945 2.3438 2.8438 5.3594 2.8438 9.0469s-0.94922 6.7031-2.8438 9.0469c-1.8984 2.3438-4.3203 3.5156-7.2656 3.5156-1.668 0-3.1406-0.33594-4.4219-1s-2.4492-1.6914-3.5-3.0781v3.4531h-7.6562v-33.234h7.6562z"/>
  </symbol>
  <symbol id="f" overflow="visible">
   <path d="m0.53125-23.922h7.6562l6.4219 16.234 5.4688-16.234h7.6562l-10.062 26.188c-1.0117 2.6641-2.1953 4.5234-3.5469 5.5781-1.3438 1.0625-3.1211 1.5938-5.3281 1.5938h-4.4219v-5.0156h2.3906c1.3008 0 2.2422-0.21094 2.8281-0.625 0.59375-0.40625 1.0547-1.1484 1.3906-2.2188l0.20312-0.65625z"/>
  </symbol>
  <symbol id="e" overflow="visible">
   <path d="m12.234-25.672v19.453h2.9531c3.3633 0 5.9297-0.83203 7.7031-2.5 1.7695-1.6641 2.6562-4.0859 2.6562-7.2656 0-3.1562-0.88672-5.5547-2.6562-7.2031-1.7617-1.6562-4.3281-2.4844-7.7031-2.4844zm-8.2188-6.2188h8.6719c4.8438 0 8.4453 0.34375 10.812 1.0312 2.375 0.6875 4.4102 1.8594 6.1094 3.5156 1.4883 1.4375 2.5977 3.1016 3.3281 4.9844 0.72656 1.875 1.0938 4 1.0938 6.375 0 2.4062-0.36719 4.5586-1.0938 6.4531-0.73047 1.8867-1.8398 3.5469-3.3281 4.9844-1.7109 1.6484-3.7617 2.8203-6.1562 3.5156-2.3984 0.6875-5.9844 1.0312-10.766 1.0312h-8.6719z"/>
  </symbol>
 </defs>
 <g>
  <path d="m539.73 238.15c19.766-13.641 33.047-34.812 36.73-58.543s-2.5547-47.934-17.254-66.926c-14.699-18.992-36.562-31.098-60.461-33.484v-17.945c-0.015625-11.598-4.6289-22.719-12.828-30.922-8.2031-8.1992-19.324-12.812-30.922-12.828h-323.75c-11.598 0.015625-22.719 4.6289-30.922 12.828-8.1992 8.2031-12.812 19.324-12.828 30.922v288.75c0.015625 11.598 4.6289 22.719 12.828 30.922 8.2031 8.1992 19.324 12.812 30.922 12.828h236.25v61.25c0 9.2812 3.6875 18.184 10.25 24.75 6.5664 6.5625 15.469 10.25 24.75 10.25h8.75v52.5h17.5v-183.75h-17.5v113.75h-8.75c-4.6406 0-9.0938-1.8438-12.375-5.125s-5.125-7.7344-5.125-12.375v-105c-0.003906-22.926 7.5156-45.219 21.402-63.457 13.887-18.238 33.375-31.422 55.477-37.52 18.219 6.3008 38.023 6.3008 56.242 0 22.102 6.0977 41.59 19.281 55.477 37.52 13.887 18.238 21.406 40.531 21.402 63.457v105c0 4.6406-1.8438 9.0938-5.125 12.375s-7.7344 5.125-12.375 5.125h-8.75v-113.75h-17.5v183.75h17.5v-52.5h8.75c9.2812 0 18.184-3.6875 24.75-10.25 6.5625-6.5664 10.25-15.469 10.25-24.75v-105c0.015625-23.691-6.8555-46.875-19.773-66.73-12.918-19.859-31.328-35.535-52.992-45.121zm-408.48 138.1c-6.9609 0-13.641-2.7656-18.562-7.6875s-7.6875-11.602-7.6875-18.562v-288.75c0-6.9609 2.7656-13.641 7.6875-18.562s11.602-7.6875 18.562-7.6875h323.75c6.9609 0 13.641 2.7656 18.562 7.6875s7.6875 11.602 7.6875 18.562v17.945c-5.9414 0.58984-11.805 1.793-17.5 3.5898v-4.0352c0-6.9609-2.7656-13.641-7.6875-18.562s-11.602-7.6875-18.562-7.6875h-288.75c-6.9609 0-13.641 2.7656-18.562 7.6875s-7.6875 11.602-7.6875 18.562v253.75c0 6.9609 2.7656 13.641 7.6875 18.562s11.602 7.6875 18.562 7.6875h218.75v17.5zm148.75-131.25c-18.566 0-36.371-7.375-49.496-20.504-13.129-13.125-20.504-30.93-20.504-49.496s7.375-36.371 20.504-49.496c13.125-13.129 30.93-20.504 49.496-20.504s36.371 7.375 49.496 20.504c13.129 13.125 20.504 30.93 20.504 49.496-0.019531 18.559-7.4023 36.352-20.527 49.473-13.121 13.125-30.914 20.508-49.473 20.527zm0 17.5c9.5508-0.015625 19.035-1.6016 28.07-4.6992 28.535 7.8633 52.387 27.473 65.625 53.945-3.1484 9.5547-5.1055 19.465-5.8281 29.504h-191.38c3.3164-19.645 12.172-37.938 25.523-52.723 13.352-14.789 30.648-25.457 49.855-30.754 9.0547 3.1172 18.559 4.7109 28.133 4.7266zm102.27 29.199c-12.879-19.676-31.184-35.191-52.699-44.68 20.645-14.191 34.219-36.551 37.277-61.418 3.0625-24.867-4.6836-49.852-21.273-68.625-16.59-18.777-40.43-29.539-65.484-29.562-25.055-0.023437-48.918 10.691-65.543 29.434-16.625 18.742-24.422 43.715-21.406 68.586 3.0117 24.871 16.539 47.258 37.16 61.492-38.504 17.008-65.531 52.656-71.504 94.324h-10.047c-4.832 0-8.75-3.918-8.75-8.75v-48.879l41.188-41.188-12.371-12.371-28.816 28.816v-180.13c0-4.832 3.918-8.75 8.75-8.75h188.88l-11.316 11.312 12.371 12.371 23.688-23.684h19.004l-28.812 28.812 12.371 12.371 41.188-41.184h31.379c2.3203 0 4.5469 0.92188 6.1875 2.5625s2.5625 3.8672 2.5625 6.1875v11.84c-25.977 14.949-42.469 42.18-43.68 72.129-1.2148 29.945 13.016 58.422 37.695 75.43-24.723 10.949-45.117 29.781-57.996 53.551zm37.73-125.45c0-18.566 7.375-36.371 20.504-49.496 13.125-13.129 30.93-20.504 49.496-20.504s36.371 7.375 49.496 20.504c13.129 13.125 20.504 30.93 20.504 49.496s-7.375 36.371-20.504 49.496c-13.125 13.129-30.93 20.504-49.496 20.504-18.559-0.019531-36.352-7.4023-49.473-20.527-13.125-13.121-20.508-30.914-20.527-49.473z"/>
  <path d="m481.25 481.25h17.5v61.25h-17.5z"/>
  <path d="m262.5 166.25c0 4.832-3.918 8.75-8.75 8.75s-8.75-3.918-8.75-8.75 3.918-8.75 8.75-8.75 8.75 3.918 8.75 8.75"/>
  <path d="m315 166.25c0 4.832-3.918 8.75-8.75 8.75s-8.75-3.918-8.75-8.75 3.918-8.75 8.75-8.75 8.75 3.918 8.75 8.75"/>
  <path d="m280 210c-11.027 0.046875-21.422-5.1484-28-14l-14 10.5c9.9141 13.219 25.477 21 42 21s32.086-7.7812 42-21l-14-10.5c-6.5781 8.8516-16.973 14.047-28 14z"/>
  <path d="m105 481.25h17.5v61.25h17.5v-61.25h157.5v61.25h17.5v-61.25h17.5v61.25h17.5v-105c0-2.3203-0.92188-4.5469-2.5625-6.1875s-3.8672-2.5625-6.1875-2.5625h-245c-4.832 0-8.75 3.918-8.75 8.75v105h17.5zm227.5-35v17.5h-227.5v-17.5z"/>
  <path d="m151.31 203.81 17.496-17.496 12.375 12.375-17.496 17.496z"/>
  <use x="70" y="691.25" xlink:href="#i"/>
  <use x="102.109375" y="691.25" xlink:href="#d"/>
  <use x="123.683594" y="691.25" xlink:href="#c"/>
  <use x="153.355469" y="691.25" xlink:href="#a"/>
  <use x="182.878906" y="691.25" xlink:href="#h"/>
  <use x="203.792969" y="691.25" xlink:href="#c"/>
  <use x="233.464844" y="691.25" xlink:href="#b"/>
  <use x="280.011719" y="691.25" xlink:href="#g"/>
  <use x="311.328125" y="691.25" xlink:href="#f"/>
  <use x="355.078125" y="691.25" xlink:href="#b"/>
  <use x="386.398438" y="691.25" xlink:href="#e"/>
  <use x="422.714844" y="691.25" xlink:href="#a"/>
  <use x="452.234375" y="691.25" xlink:href="#d"/>
  <use x="473.8125" y="691.25" xlink:href="#a"/>
 </g>
</svg>
